HIERARCHY
ROOT Hips
{
	OFFSET -0.001795 -0.223333 0.028219
	CHANNELS 6 Xposition Yposition Zposition Zrotation Yrotation Xrotation 
	JOINT LeftUpLeg
	{
		OFFSET 0.069520 -0.091406 -0.006815
		CHANNELS 3 Zrotation Yrotation Xrotation
		JOINT LeftLeg
		{
			OFFSET 0.034277 -0.375199 -0.004496
			CHANNELS 3 Zrotation Yrotation Xrotation
			JOINT LeftFoot
			{
				OFFSET -0.013596 -0.397961 -0.043693
				CHANNELS 3 Zrotation Yrotation Xrotation
				JOINT LeftToe
				{
					OFFSET 0.026358 -0.055791 0.119288
					CHANNELS 3 Zrotation Yrotation Xrotation
					End Site
					{
						OFFSET 0.000000 0.000000 0.000000
					}
				}
			}
		}
	}
	JOINT RightUpLeg
	{
		OFFSET -0.067670 -0.090522 -0.004320
		CHANNELS 3 Zrotation Yrotation Xrotation
		JOINT RightLeg
		{
			OFFSET -0.038290 -0.382569 -0.008850
			CHANNELS 3 Zrotation Yrotation Xrotation
			JOINT RightFoot
			{
				OFFSET 0.015774 -0.398415 -0.042312
				CHANNELS 3 Zrotation Yrotation Xrotation
				JOINT RightToe
				{
					OFFSET -0.025372 -0.048144 0.123348
					CHANNELS 3 Zrotation Yrotation Xrotation
					End Site
					{
						OFFSET 0.000000 0.000000 0.000000
					}
				}
			}
		}
	}
	JOINT Spine
	{
		OFFSET -0.002533 0.108963 -0.026696
		CHANNELS 3 Zrotation Yrotation Xrotation
		JOINT Spine1
		{
			OFFSET 0.005487 0.135180 0.001092
			CHANNELS 3 Zrotation Yrotation Xrotation
			JOINT Spine2
			{
				OFFSET 0.001457 0.052922 0.025425
				CHANNELS 3 Zrotation Yrotation Xrotation
				JOINT Neck
				{
					OFFSET -0.002778 0.213870 -0.042857
					CHANNELS 3 Zrotation Yrotation Xrotation
					JOINT Head
					{
						OFFSET 0.005152 0.064970 0.051349
						CHANNELS 3 Zrotation Yrotation Xrotation
						End Site
						{
							OFFSET 0.000000 0.000000 0.000000
						}
					}
				}
				JOINT LeftShoulder
				{
					OFFSET 0.078845 0.121749 -0.034090
					CHANNELS 3 Zrotation Yrotation Xrotation
					JOINT LeftArm
					{
						OFFSET 0.090977 0.030469 -0.008868
						CHANNELS 3 Zrotation Yrotation Xrotation
						JOINT LeftForeArm
						{
							OFFSET 0.259612 -0.012772 -0.027456
							CHANNELS 3 Zrotation Yrotation Xrotation
							JOINT LeftHand
							{
								OFFSET 0.249234 0.008986 -0.001171
								CHANNELS 3 Zrotation Yrotation Xrotation
								End Site
								{
									OFFSET 0.000000 0.000000 0.000000
								}
							}
						}
					}
				}
				JOINT RightShoulder
				{
					OFFSET -0.081759 0.118833 -0.038615
					CHANNELS 3 Zrotation Yrotation Xrotation
					JOINT RightArm
					{
						OFFSET -0.096012 0.032551 -0.009143
						CHANNELS 3 Zrotation Yrotation Xrotation
						JOINT RightForeArm
						{
							OFFSET -0.253742 -0.013329 -0.021401
							CHANNELS 3 Zrotation Yrotation Xrotation
							JOINT RightHand
							{
								OFFSET -0.255298 0.007772 -0.005559
								CHANNELS 3 Zrotation Yrotation Xrotation
								End Site
								{
									OFFSET 0.000000 0.000000 0.000000
								}
							}
						}
					}
				}
			}
		}
	}
}
MOTION
Frames: 10
Frame Time: 0.050000
0.000000 0.942372 0.000000 -0.221527 -4.627536 8.143956 5.924590 -0.306593 -4.242121 -0.040311 0.183824 -5.215783 1.983731 6.769570 9.655428 0.000000 0.000000 0.000000 -4.232090 0.597079 -5.928641 -2.037690 -0.012453 -3.589688 -0.399429 -5.602199 9.917586 0.000000 0.000000 0.000000 5.471267 0.331708 -5.635821 -2.847241 1.269674 -4.581125 -3.665643 5.153597 4.978419 4.873807 -2.102683 -11.432392 0.000000 0.000000 0.000000 -15.586904 2.139111 -3.173721 -56.028773 -6.646765 -3.541749 -7.587790 -14.662716 1.432656 0.000000 0.000000 0.000000 13.457867 -9.021713 -5.077417 64.016777 3.235661 -4.185169 8.242388 18.776530 1.949091 0.000000 0.000000 0.000000 
0.000045 0.941984 0.000120 -0.373135 -5.313967 8.940814 5.906577 -0.298937 -3.936032 0.160827 0.216970 -6.388879 2.242064 7.140673 9.635852 0.000000 0.000000 0.000000 -4.204206 0.690451 -7.137837 -2.311609 0.020264 -3.260897 0.246983 -4.618402 10.442088 0.000000 0.000000 0.000000 6.571468 0.405118 -6.242178 -3.426801 1.500117 -4.784155 -4.487872 5.620506 4.336696 4.331083 -1.633450 -11.999945 0.000000 0.000000 0.000000 -16.298333 2.912784 -3.740566 -55.035217 -6.789088 -3.323785 -8.194662 -14.591635 1.489069 0.000000 0.000000 0.000000 13.312987 -10.333721 -5.672657 64.500704 1.997280 -4.777863 9.165323 19.369739 2.167636 0.000000 0.000000 0.000000 
0.000104 0.941681 0.000091 0.018165 -5.252803 8.577110 5.462682 -0.309809 -4.150002 0.335102 0.138325 -4.731901 1.879067 6.143945 7.996625 0.000000 0.000000 0.000000 -4.402057 0.681594 -7.087529 -2.398600 0.040622 -3.025806 -0.440523 -5.771971 9.938638 0.000000 0.000000 0.000000 6.318991 0.357532 -5.771606 -3.283105 1.415439 -6.101120 -4.750433 5.320744 5.213558 3.909272 -1.479282 -11.340647 0.000000 0.000000 0.000000 -16.348210 2.051524 -3.242755 -54.948469 -6.827361 -3.394567 -7.588818 -13.788156 1.348764 0.000000 0.000000 0.000000 14.198130 -9.360990 -5.359249 63.704358 1.796321 -4.998731 8.686349 19.972731 2.168977 0.000000 0.000000 0.000000 
0.000033 0.941643 0.000084 0.157053 -5.082842 9.104916 5.792612 -0.323106 -4.384852 -0.213175 0.199791 -5.317218 1.631107 5.856526 8.598431 0.000000 0.000000 0.000000 -4.762709 0.720526 -7.649559 -2.225405 0.017239 -3.231779 -0.589204 -6.327638 10.723290 0.000000 0.000000 0.000000 6.393737 0.383455 -6.125956 -3.588829 1.550607 -5.659017 -4.746210 4.658693 3.848735 3.554223 -1.359278 -10.638807 0.000000 0.000000 0.000000 -16.449312 2.582294 -3.457346 -55.355467 -7.675828 -2.889620 -6.380186 -12.811976 1.123200 0.000000 0.000000 0.000000 13.127047 -9.603721 -5.401499 64.199091 1.465372 -5.069135 9.798581 20.150387 2.333490 0.000000 0.000000 0.000000 
-0.000087 0.942049 0.000004 0.348657 -4.712098 8.927791 5.262044 -0.333883 -4.389935 0.215354 0.163116 -5.135494 1.560181 5.772112 8.619495 0.000000 0.000000 0.000000 -4.790586 0.702972 -7.466177 -2.472049 0.026101 -3.382625 -0.750661 -6.659693 10.909249 0.000000 0.000000 0.000000 6.193642 0.378987 -6.110956 -3.440652 1.498461 -5.475202 -4.936241 4.474199 3.634580 3.339327 -1.161605 -11.016225 0.000000 0.000000 0.000000 -16.522236 2.092156 -3.247569 -55.223764 -8.142064 -2.643618 -6.671330 -12.370800 1.112057 0.000000 0.000000 0.000000 12.936419 -9.668709 -5.393063 64.234674 1.372049 -5.090910 9.975714 20.039461 2.348017 0.000000 0.000000 0.000000 
-0.000217 0.942303 -0.000053 0.466451 -4.491924 9.165374 5.221589 -0.341937 -4.433712 0.056142 0.178647 -5.254630 1.552584 5.783128 8.640057 0.000000 0.000000 0.000000 -4.912681 0.698143 -7.388308 -2.566836 0.009320 -3.775088 -0.728767 -6.800772 11.536705 0.000000 0.000000 0.000000 6.081584 0.405948 -6.462309 -3.434629 1.495501 -5.609121 -5.013037 4.343580 3.486567 3.467734 -1.292158 -10.632523 0.000000 0.000000 0.000000 -16.911653 2.269088 -3.407307 -55.018775 -8.406158 -2.485185 -6.214813 -11.873928 1.020110 0.000000 0.000000 0.000000 12.633781 -9.635160 -5.328980 64.553724 1.185269 -5.187510 10.012210 19.988283 2.344216 0.000000 0.000000 0.000000 
-0.000320 0.942458 -0.000194 0.459088 -4.091266 9.128451 5.168149 -0.347562 -4.462793 0.228520 0.164113 -5.184019 1.454344 5.735185 8.988428 0.000000 0.000000 0.000000 -4.766758 0.686087 -7.248068 -2.731880 0.008434 -3.982296 -0.563764 -6.522569 11.798129 0.000000 0.000000 0.000000 6.049438 0.406702 -6.506268 -3.422823 1.495828 -5.605432 -4.975100 4.033607 3.368936 3.657527 -1.379225 -10.981967 0.000000 0.000000 0.000000 -17.254678 2.060763 -3.342939 -54.998192 -8.348731 -2.491928 -5.997791 -11.468512 0.965019 0.000000 0.000000 0.000000 12.705835 -9.487388 -5.284436 64.577987 1.202403 -5.177549 9.701245 19.812993 2.265319 0.000000 0.000000 0.000000 
-0.000345 0.942755 -0.000429 0.394885 -3.735465 9.257989 5.081643 -0.369782 -4.814358 0.317067 0.140837 -4.745418 1.296875 5.345158 8.437313 0.000000 0.000000 0.000000 -4.641289 0.691273 -7.346912 -2.794909 0.020620 -3.866702 -0.609366 -6.495839 11.600147 0.000000 0.000000 0.000000 5.942397 0.408028 -6.605188 -3.246951 1.428793 -5.527838 -5.004123 3.884459 2.940082 3.900642 -1.574444 -10.637672 0.000000 0.000000 0.000000 -17.371283 2.144975 -3.431298 -54.968661 -8.319069 -2.458518 -5.749208 -11.106087 0.908386 0.000000 0.000000 0.000000 12.716337 -9.576320 -5.326046 64.714815 1.217584 -5.125900 9.643370 19.150555 2.165838 0.000000 0.000000 0.000000 
-0.000398 0.943147 -0.000750 0.375073 -3.482919 9.201669 5.066145 -0.384755 -5.104322 0.300538 0.125736 -4.324207 1.321508 5.370760 8.282261 0.000000 0.000000 0.000000 -4.552565 0.679636 -7.197784 -2.820346 0.009651 -4.086218 -0.369127 -6.011480 11.625871 0.000000 0.000000 0.000000 5.868789 0.396293 -6.516389 -3.163146 1.393557 -5.812903 -4.834198 3.831882 3.059368 4.076205 -1.688267 -10.645934 0.000000 0.000000 0.000000 -17.321206 2.210535 -3.461052 -55.167182 -8.313403 -2.484012 -5.622704 -10.728215 0.865667 0.000000 0.000000 0.000000 12.843377 -9.586303 -5.345094 64.577603 1.394679 -5.028780 9.366755 18.723143 2.071385 0.000000 0.000000 0.000000 
-0.000421 0.943637 -0.001102 0.382134 -3.429670 9.159226 5.139028 -0.389076 -5.234340 0.218199 0.125445 -4.154461 1.327181 5.440294 8.485597 0.000000 0.000000 0.000000 -4.546230 0.680021 -7.218799 -2.841570 0.005549 -4.176604 -0.161979 -5.622898 11.669305 0.000000 0.000000 0.000000 5.814130 0.392224 -6.483845 -3.088534 1.363093 -5.871489 -4.740131 3.869575 2.918134 4.383914 -1.880942 -10.684457 0.000000 0.000000 0.000000 -17.196972 2.361249 -3.530991 -55.427729 -8.279566 -2.502565 -5.373714 -10.427346 0.817974 0.000000 0.000000 0.000000 12.873355 -9.409540 -5.260097 64.510763 1.686341 -4.845935 9.064500 18.124832 1.951167 0.000000 0.000000 0.000000 
